<svg width="190" height="96" viewBox="0 0 190 96" fill="none" xmlns="http://www.w3.org/2000/svg">
<path d="M0.4 94V1.84H31.12L56.72 90.672H45.584L71.184 1.84H102.032V94H82.576V7.34399H85.904L60.944 94H40.592L15.888 8.112H19.088V94H0.4ZM152.663 95.152C140.716 95.152 131.159 92.5067 123.991 87.216C116.823 81.84 112.642 74.288 111.447 64.56H130.391C130.988 69.5093 133.378 73.4347 137.559 76.336C141.74 79.152 147.074 80.56 153.559 80.56C158.85 80.56 162.903 79.6213 165.719 77.744C168.62 75.8667 170.071 73.3493 170.071 70.192C170.071 67.2053 169.218 64.816 167.511 63.024C165.804 61.1467 162.86 59.6533 158.679 58.544L141.527 53.808C132.738 51.3333 126.295 47.9627 122.199 43.696C118.188 39.344 116.183 33.9253 116.183 27.44C116.183 21.8933 117.591 17.1147 120.407 13.104C123.308 9.008 127.362 5.89333 132.567 3.75999C137.772 1.54133 143.874 0.431999 150.871 0.431999C161.623 0.431999 170.199 2.992 176.599 8.112C182.999 13.1467 186.626 19.8453 187.479 28.208H168.535C167.682 23.6853 165.591 20.3573 162.263 18.224C159.02 16.0907 154.839 15.024 149.719 15.024C145.282 15.024 141.74 15.8773 139.095 17.584C136.45 19.2907 135.127 21.5947 135.127 24.496C135.127 26.7147 135.852 28.7627 137.303 30.64C138.754 32.432 141.783 33.968 146.391 35.248L163.543 39.984C172.588 42.4587 179.074 45.872 182.999 50.224C187.01 54.4907 189.015 59.9093 189.015 66.48C189.015 75.696 185.815 82.7787 179.415 87.728C173.015 92.6773 164.098 95.152 152.663 95.152Z" fill="#6A66F3"/>
</svg>
