<svg width="990" height="96" viewBox="0 0 990 96" fill="none" xmlns="http://www.w3.org/2000/svg">
<path d="M0.4 94V1.84H31.12L56.72 90.672H45.584L71.184 1.84H102.032V94H82.576V7.34399H85.904L60.944 94H40.592L15.888 8.112H19.088V94H0.4ZM111.447 94L144.471 1.84H161.367L131.031 94H111.447ZM179.031 94L148.823 1.84H166.487L199.511 94H179.031ZM128.855 58.288H180.567V73.648H128.855V58.288ZM209.025 94V1.84H228.737V94H209.025ZM268.673 94V1.84H288.385V94H268.673ZM218.241 38.448H277.633V53.552H218.241V38.448ZM301.15 94V1.84H320.862V94H301.15ZM333.65 94V1.84H353.362V94H333.65ZM347.09 46.128L388.562 1.84H414.802L371.026 46.128H347.09ZM390.61 94L346.834 46.128H371.026L417.362 94H390.61ZM426.025 94V1.84H445.737V94H426.025ZM439.465 46.128L480.937 1.84H507.177L463.401 46.128H439.465ZM482.985 94L439.209 46.128H463.401L509.737 94H482.985ZM553.072 95.28C546.245 95.28 539.931 94.128 534.128 91.824C528.411 89.52 523.419 86.2773 519.152 82.096C514.971 77.8293 511.685 72.7947 509.296 66.992C506.992 61.104 505.84 54.6187 505.84 47.536C505.84 38.1493 507.845 29.9573 511.856 22.96C515.867 15.8773 521.413 10.3733 528.496 6.448C535.664 2.52266 543.813 0.559998 552.944 0.559998C562.245 0.559998 570.437 2.52266 577.52 6.448C584.603 10.3733 590.149 15.8773 594.16 22.96C598.256 30.0427 600.304 38.2773 600.304 47.664C600.304 54.6613 599.109 61.104 596.72 66.992C594.416 72.7947 591.131 77.8293 586.864 82.096C582.683 86.2773 577.691 89.52 571.888 91.824C566.171 94.128 559.899 95.28 553.072 95.28ZM552.944 79.664C558.32 79.664 563.056 78.2987 567.152 75.568C571.248 72.8373 574.448 69.0827 576.752 64.304C579.141 59.44 580.336 53.808 580.336 47.408C580.336 41.0933 579.184 35.5893 576.88 30.896C574.576 26.2027 571.376 22.576 567.28 20.016C563.184 17.456 558.405 16.176 552.944 16.176C547.568 16.176 542.832 17.456 538.736 20.016C534.64 22.576 531.44 26.2027 529.136 30.896C526.917 35.504 525.808 41.008 525.808 47.408C525.808 53.8933 526.96 59.568 529.264 64.432C531.568 69.2107 534.768 72.9653 538.864 75.696C542.96 78.3413 547.653 79.664 552.944 79.664ZM672.788 95.152C660.841 95.152 651.284 92.5067 644.116 87.216C636.948 81.84 632.767 74.288 631.572 64.56H650.516C651.113 69.5093 653.503 73.4347 657.684 76.336C661.865 79.152 667.199 80.56 673.684 80.56C678.975 80.56 683.028 79.6213 685.844 77.744C688.745 75.8667 690.196 73.3493 690.196 70.192C690.196 67.2053 689.343 64.816 687.636 63.024C685.929 61.1467 682.985 59.6533 678.804 58.544L661.652 53.808C652.863 51.3333 646.42 47.9627 642.324 43.696C638.313 39.344 636.308 33.9253 636.308 27.44C636.308 21.8933 637.716 17.1147 640.532 13.104C643.433 9.008 647.487 5.89333 652.692 3.75999C657.897 1.54133 663.999 0.431999 670.996 0.431999C681.748 0.431999 690.324 2.992 696.724 8.112C703.124 13.1467 706.751 19.8453 707.604 28.208H688.66C687.807 23.6853 685.716 20.3573 682.388 18.224C679.145 16.0907 674.964 15.024 669.844 15.024C665.407 15.024 661.865 15.8773 659.22 17.584C656.575 19.2907 655.252 21.5947 655.252 24.496C655.252 26.7147 655.977 28.7627 657.428 30.64C658.879 32.432 661.908 33.968 666.516 35.248L683.668 39.984C692.713 42.4587 699.199 45.872 703.124 50.224C707.135 54.4907 709.14 59.9093 709.14 66.48C709.14 75.696 705.94 82.7787 699.54 87.728C693.14 92.6773 684.223 95.152 672.788 95.152ZM718.4 94V1.84H738.112V94H718.4ZM778.048 94V1.84H797.76V94H778.048ZM727.616 38.448H787.008V53.552H727.616V38.448ZM855.197 95.28C848.37 95.28 842.056 94.128 836.253 91.824C830.536 89.52 825.544 86.2773 821.277 82.096C817.096 77.8293 813.81 72.7947 811.421 66.992C809.117 61.104 807.965 54.6187 807.965 47.536C807.965 38.1493 809.97 29.9573 813.981 22.96C817.992 15.8773 823.538 10.3733 830.621 6.448C837.789 2.52266 845.938 0.559998 855.069 0.559998C864.37 0.559998 872.562 2.52266 879.645 6.448C886.728 10.3733 892.274 15.8773 896.285 22.96C900.381 30.0427 902.429 38.2773 902.429 47.664C902.429 54.6613 901.234 61.104 898.845 66.992C896.541 72.7947 893.256 77.8293 888.989 82.096C884.808 86.2773 879.816 89.52 874.013 91.824C868.296 94.128 862.024 95.28 855.197 95.28ZM855.069 79.664C860.445 79.664 865.181 78.2987 869.277 75.568C873.373 72.8373 876.573 69.0827 878.877 64.304C881.266 59.44 882.461 53.808 882.461 47.408C882.461 41.0933 881.309 35.5893 879.005 30.896C876.701 26.2027 873.501 22.576 869.405 20.016C865.309 17.456 860.53 16.176 855.069 16.176C849.693 16.176 844.957 17.456 840.861 20.016C836.765 22.576 833.565 26.2027 831.261 30.896C829.042 35.504 827.933 41.008 827.933 47.408C827.933 53.8933 829.085 59.568 831.389 64.432C833.693 69.2107 836.893 72.9653 840.989 75.696C845.085 78.3413 849.778 79.664 855.069 79.664ZM912.65 94V1.84H956.426C963.253 1.84 969.098 3.03466 973.962 5.424C978.911 7.81333 982.709 11.1413 985.354 15.408C988.085 19.6747 989.45 24.6667 989.45 30.384C989.45 36.1013 988.085 41.136 985.354 45.488C982.623 49.84 978.783 53.2533 973.834 55.728C968.97 58.1173 963.167 59.312 956.426 59.312H928.266V44.208H955.402C959.925 44.208 963.423 42.9707 965.898 40.496C968.458 37.936 969.738 34.608 969.738 30.512C969.738 26.416 968.458 23.1307 965.898 20.656C963.423 18.1813 959.925 16.944 955.402 16.944H932.362V94H912.65Z" fill="#6A66F3"/>
</svg>
